<svg width="25" height="25" viewBox="0 0 25 25" fill="none" xmlns="http://www.w3.org/2000/svg">
<path d="M0 12.5C0 11.7188 0.15625 10.9375 0.3125 10C0.46875 9.0625 0.78125 8.4375 1.09375 7.65625C1.25 7.03125 1.71875 6.25 2.03125 5.625C2.5 5 2.96875 4.375 3.59375 3.75C4.21875 3.125 4.84375 2.65625 5.46875 2.1875C6.25 1.71875 7.03125 1.25 7.65625 0.9375C8.4375 0.625 9.21875 0.3125 10 0.15625C10.9375 0.15625 11.7188 0 12.5 0C13.2812 0 14.0625 0.15625 15 0.3125C15.7813 0.46875 16.5625 0.78125 17.3438 1.09375C18.125 1.40625 18.75 1.71875 19.5312 2.1875C20.1562 2.65625 20.7812 3.125 21.4062 3.75C22.0312 4.375 22.5 5 22.9688 5.625C23.4375 6.25 23.75 7.03125 24.0625 7.8125C24.375 8.59375 24.6875 9.375 24.8438 10.1562C25 10.9375 25 11.7188 25 12.5C25 13.2812 24.8438 14.0625 24.6875 15C24.5312 15.9375 24.2188 16.5625 23.9062 17.3438C23.5938 18.125 23.2812 18.75 22.8125 19.5312C22.3438 20.1562 21.875 20.7812 21.25 21.4062C20.625 22.0312 20 22.5 19.375 22.9688C18.75 23.4375 17.9688 23.75 17.1875 24.0625C16.4062 24.375 15.625 24.6875 14.8438 24.8438C14.0625 25 13.2812 25 12.5 25C11.7188 25 10.9375 24.8438 10 24.6875C9.21875 24.5312 8.4375 24.2188 7.65625 23.9062C6.875 23.5938 6.25 23.2812 5.46875 22.8125C4.84375 22.3438 4.21875 21.875 3.59375 21.25C2.96875 20.625 2.5 20 2.03125 19.375C1.5625 18.75 1.25 17.9688 0.9375 17.1875C0.625 16.4062 0.3125 15.625 0.15625 14.8438C0 14.0625 0 13.2812 0 12.5Z" fill="#8430AB"/>
<path d="M12.5 16.72L14.5312 13.2824L15.3125 15.6263H14.6875V16.5638H18.75V15.6263H17.9688L15 8.28223L12.5 12.8136L10 8.28223L7.03125 15.6263H6.25V16.5638H10.3125V15.6263H9.6875L10.4687 13.2824L12.5 16.72Z" fill="white"/>
</svg>
