<svg width="25" height="25" viewBox="0 0 25 25" fill="none" xmlns="http://www.w3.org/2000/svg">
<path fill-rule="evenodd" clip-rule="evenodd" d="M8.68846 0.0531899C6.51801 0.327562 4.4661 1.33634 2.90863 2.89475C-0.0381376 5.84329 -0.83321 10.3131 0.925493 14.044C2.37878 17.127 5.27705 19.2601 8.60548 19.6966C11.0752 20.0205 13.604 19.3857 15.6228 17.9352C15.8627 17.7628 16.0763 17.6218 16.0973 17.6218C16.1184 17.6218 17.7514 19.2371 19.7263 21.2115C23.5109 24.995 23.5151 24.9987 23.952 25C24.1677 25.0007 24.5894 24.8233 24.7186 24.6777C24.8594 24.519 25 24.1558 25 23.9508C25 23.5143 24.9964 23.5103 21.2143 19.7225C19.2412 17.7465 17.6268 16.1147 17.6268 16.0964C17.6268 16.0781 17.7695 15.8613 17.944 15.6147C19.1576 13.8989 19.7725 11.9849 19.775 9.91459C19.7783 7.23661 18.7516 4.75944 16.8581 2.87623C15.367 1.39323 13.5265 0.453262 11.4237 0.100743C10.7604 -0.0104913 9.3817 -0.034439 8.68846 0.0531899ZM11.0329 2.15521C13.2603 2.51315 15.1618 3.71791 16.3688 5.53613C17.2667 6.88844 17.679 8.2408 17.6845 9.85101C17.6872 10.6264 17.6318 11.0963 17.454 11.8072C16.7664 14.5564 14.5632 16.7609 11.8158 17.4489C11.1052 17.6268 10.6357 17.6822 9.8607 17.6795C8.25146 17.674 6.89992 17.2614 5.54842 16.3631C3.39145 14.9293 2.09559 12.4994 2.0948 9.88712C2.09441 8.57303 2.36378 7.47198 2.97511 6.28852C3.96287 4.37638 5.71669 2.95301 7.8337 2.34532C8.72632 2.08913 10.1101 2.00688 11.0329 2.15521Z" fill="black"/>
</svg>
