<svg width="38" height="38" viewBox="0 0 38 38" fill="none" xmlns="http://www.w3.org/2000/svg">
<path d="M24.3263 16.7419C23.0732 15.4887 20.8672 15.7441 19.6637 16.0079C17.9568 16.3821 16.3651 17.1459 15.5096 18.0014C13.9485 19.5624 14.0235 22.1184 15.0619 23.9792C13.7346 25.547 13.0625 27.063 13.0625 28.4975C13.0625 29.1533 13.5941 29.685 14.25 29.685C14.9059 29.685 15.4375 29.1533 15.4375 28.4975C15.4375 27.614 15.9699 26.6477 16.6838 25.7556C17.625 26.391 18.8037 26.7624 19.958 26.7623C21.1065 26.7622 22.2298 26.3955 23.0667 25.5586C23.9222 24.7031 24.6861 23.1113 25.0602 21.4045C25.324 20.201 25.5794 17.995 24.3263 16.7419ZM22.7403 20.896C22.4398 22.2668 21.8323 23.4344 21.3873 23.8793C20.6868 24.5797 19.3724 24.5098 18.3759 24.004C18.9999 23.4509 19.5804 23.0132 19.9475 22.7675C20.4926 22.4036 20.6397 21.6667 20.2761 21.1212C19.9124 20.5756 19.175 20.4282 18.6294 20.7918C18.587 20.82 17.8083 21.3424 16.8515 22.1788C16.5564 21.2798 16.6036 20.2658 17.1888 19.6807C17.6336 19.2358 18.8012 18.6283 20.1721 18.3278C20.7104 18.2098 21.164 18.164 21.5316 18.164C22.1424 18.164 22.5159 18.2903 22.6467 18.4211C22.8566 18.6309 23.0544 19.4629 22.7403 20.896Z" fill="white"/>
<path d="M37.6672 18.1743L20.9043 0.796571C20.8994 0.79145 20.8944 0.786403 20.8893 0.781356C19.8475 -0.260452 18.1525 -0.260452 17.1107 0.781356C17.1057 0.786403 17.1006 0.79145 17.0957 0.796571L0.332824 18.1743C-0.122508 18.6463 -0.108926 19.3981 0.363031 19.8534C0.835136 20.3087 1.58682 20.2952 2.04215 19.8231L2.96878 18.8626V34.5846C2.96878 36.4671 4.50035 37.9987 6.38284 37.9987H31.6172C33.4997 37.9987 35.0313 36.4671 35.0313 34.5846V18.8626L35.9578 19.8231C36.1909 20.0647 36.5015 20.1863 36.8127 20.1862C37.1094 20.1862 37.4066 20.0756 37.6369 19.8534C38.109 19.3981 38.1225 18.6464 37.6672 18.1743ZM32.6563 34.5847C32.6563 35.1577 32.1902 35.6238 31.6172 35.6238H6.38284C5.80987 35.6238 5.34377 35.1577 5.34377 34.5847V16.4005L18.7947 2.4561C18.9092 2.34648 19.0907 2.34648 19.2052 2.4561L32.6563 16.4005V34.5847Z" fill="white"/>
</svg>
