<svg width="26" height="23" viewBox="0 0 26 23" fill="none" xmlns="http://www.w3.org/2000/svg">
<path d="M14.1565 5.93949C14.5666 5.93949 14.899 5.60708 14.899 5.19704C14.899 4.787 14.5666 4.45459 14.1565 4.45459C13.7465 4.45459 13.4141 4.787 13.4141 5.19704C13.4141 5.60708 13.7465 5.93949 14.1565 5.93949Z" fill="#0E0E0E"/>
<path d="M17.1252 5.93949C17.5353 5.93949 17.8677 5.60708 17.8677 5.19704C17.8677 4.787 17.5353 4.45459 17.1252 4.45459C16.7152 4.45459 16.3828 4.787 16.3828 5.19704C16.3828 5.60708 16.7152 5.93949 17.1252 5.93949Z" fill="#0E0E0E"/>
<path d="M20.096 5.93949C20.506 5.93949 20.8384 5.60708 20.8384 5.19704C20.8384 4.787 20.506 4.45459 20.096 4.45459C19.6859 4.45459 19.3535 4.787 19.3535 5.19704C19.3535 5.60708 19.6859 5.93949 20.096 5.93949Z" fill="#0E0E0E"/>
<path d="M16.6909 22.2732C17.9132 22.2732 18.9077 21.274 18.9077 20.0458V17.076C18.9077 16.7566 18.7034 16.4731 18.4005 16.3719L13.9564 14.887C13.7388 14.8143 13.5001 14.8462 13.3093 14.9734L11.4193 16.2333C9.39108 15.2709 6.99381 12.8949 6.04031 10.9026L7.2998 9.01345C7.42695 8.82269 7.45888 8.58382 7.38622 8.36633L5.90132 3.92218C5.8001 3.61926 5.51654 3.41504 5.19714 3.41504H2.22734C0.999187 3.41504 0 4.40948 0 5.63184C0 9.73394 1.86523 13.9441 5.11745 17.1827C8.3661 20.4178 12.5845 22.2732 16.6909 22.2732ZM2.22734 4.89994H4.66242L5.86272 8.4922L4.57942 10.4171C4.4438 10.6205 4.41702 10.8776 4.50785 11.1046C5.00157 12.3389 5.98962 13.7272 7.28995 15.0136C8.58171 16.2916 9.97672 17.2688 11.218 17.7653C11.445 17.8561 11.7022 17.8293 11.9056 17.6938L13.8306 16.4105L17.4228 17.6108V20.0458C17.4228 20.4622 17.1013 20.7883 16.6909 20.7883C8.87473 20.7883 1.4849 13.4225 1.4849 5.63184C1.4849 5.22142 1.81103 4.89994 2.22734 4.89994Z" fill="#0E0E0E"/>
<path d="M13.872 13.3075C14.1494 13.4224 14.4688 13.3589 14.6811 13.1466L17.4334 10.3942H20.0957C22.9887 10.3942 25.3423 8.06284 25.3423 5.19714C25.3423 2.33144 22.9887 0 20.0957 0H14.1561C11.2904 0 8.95898 2.33144 8.95898 5.19714C8.95898 7.8108 10.8984 9.98004 13.4137 10.3414V12.6216C13.4137 12.9219 13.5946 13.1926 13.872 13.3075ZM10.4439 5.19714C10.4439 3.15021 12.1092 1.4849 14.1561 1.4849H20.0957C22.1699 1.4849 23.8574 3.15021 23.8574 5.19714C23.8574 7.24407 22.1699 8.90938 20.0957 8.90938H17.1259C16.929 8.90938 16.7401 8.98758 16.601 9.12682L14.8986 10.8292V9.65184C14.8986 9.2418 14.5661 8.90938 14.1561 8.90938C12.1092 8.90938 10.4439 7.24407 10.4439 5.19714Z" fill="#0E0E0E"/>
</svg>
