<svg width="21" height="21" viewBox="0 0 21 21" fill="none" xmlns="http://www.w3.org/2000/svg">
<path d="M11.2938 5.25625C11.2938 4.8731 10.9832 4.5625 10.6 4.5625C10.2169 4.5625 9.90625 4.8731 9.90625 5.25625V9.29815C9.90625 10.3156 10.3104 11.2915 11.0299 12.0109L13.2522 14.2332C13.5231 14.5041 13.9623 14.5041 14.2332 14.2332C14.5041 13.9623 14.5041 13.5231 14.2332 13.2522L12.2569 11.2759C11.6402 10.6592 11.2938 9.82273 11.2938 8.95055V5.25625Z" fill="#0E0E0E" stroke="#0E0E0E" stroke-width="0.2" stroke-linecap="round"/>
<path d="M10.6 1C5.30656 1 1 5.30656 1 10.6C1 15.8934 5.30656 20.2 10.6 20.2C15.8934 20.2 20.2 15.8934 20.2 10.6C20.2 5.30656 15.8934 1 10.6 1ZM10.6 18.8125C6.07164 18.8125 2.38751 15.1284 2.38751 10.6C2.38751 6.07164 6.07164 2.38751 10.6 2.38751C15.1284 2.38751 18.8125 6.07164 18.8125 10.6C18.8125 15.1284 15.1284 18.8125 10.6 18.8125Z" fill="#0E0E0E" stroke="#0E0E0E" stroke-width="0.2" stroke-linecap="round"/>
</svg>
