<svg width="360" height="60" viewBox="0 0 360 60" fill="none" xmlns="http://www.w3.org/2000/svg">
<path d="M21.1983 17.735C21.6081 18.3529 22.1374 18.988 22.8717 18.988C23.7596 18.988 24.2548 18.0611 24.4256 17.7693C25.8941 15.0917 26.7991 12.105 23.401 8.31163L22.8717 7.72803L22.3082 8.29447C19.5248 11.1438 19.115 14.5939 21.1983 17.735ZM22.8204 9.97662C24.8526 12.6028 24.4427 14.6625 23.1107 17.0656C22.9912 17.2715 22.9059 17.3917 22.8546 17.4432C22.7692 17.3745 22.6326 17.22 22.4448 16.911C20.8909 14.5595 21.0275 12.1737 22.8204 9.97662Z" fill="#0E0E0E"/>
<path d="M3.49016 20.7379C4.22443 21.3042 5.14653 21.3729 5.8808 21.4415L6.13694 21.4587C6.71752 21.5103 7.3664 21.6647 8.10067 21.9222C7.92991 22.3169 7.86161 22.7804 7.94699 23.261C8.0836 24.1364 8.6471 25.0118 9.33014 25.4581C9.44967 25.5267 9.58628 25.5783 9.72288 25.5783C9.97902 25.5783 10.2181 25.4581 10.3547 25.2178C10.5767 24.8745 10.4742 24.411 10.1156 24.188C9.84239 24.0162 9.5009 23.5356 9.41553 23.0379C9.39845 22.8834 9.39845 22.6774 9.48382 22.5229C9.80823 22.6774 10.1156 22.8663 10.4571 23.0894C10.5426 23.1409 10.645 23.2096 10.7304 23.261C11.2598 23.6386 11.8062 24.085 12.3526 24.617C12.5916 24.8402 12.8136 25.0805 13.0357 25.3036C13.4796 25.767 13.9236 26.2476 14.4871 26.6596C14.8116 26.9 15.153 27.1403 15.5116 27.3462C15.8019 27.5179 16.1434 27.6723 16.5703 27.8096C17.6461 28.1873 18.7048 28.3761 19.7294 28.3761C20.0709 28.3761 20.4124 28.3589 20.7368 28.3074C21.0443 28.2731 21.7102 28.1873 22.0176 27.5865C22.2225 27.1917 22.1883 26.6768 22.0688 26.3678C21.881 25.8529 21.4882 25.6469 21.2492 25.5267C21.2151 25.5096 21.1809 25.4924 21.1638 25.4753C21.1638 25.441 21.1809 25.4238 21.1809 25.3894C21.2321 25.1148 21.2321 24.8573 21.2321 24.5827C21.2321 24.3939 21.2321 24.188 21.2662 24.0162C21.3004 23.7931 21.3687 23.7073 21.6419 23.4326L21.9834 23.0207C22.1883 22.5916 22.4445 22.3513 22.8543 22.2312C23.4178 22.0423 24.0496 22.111 24.6472 22.4199C25.484 22.8491 25.6036 23.3812 25.6206 23.7588C25.6377 24.2051 25.5181 24.5312 25.2278 24.8059C24.8863 25.1319 24.4936 25.4238 24.1521 25.6641C23.7252 25.973 23.5202 26.4022 23.5374 26.9857C23.5544 27.4835 23.7935 28.1014 24.9375 28.2216L25.0571 28.2387C25.9963 28.3417 26.9697 28.4276 28.0112 28.2044C29.087 27.9641 30.1457 27.4492 31.1703 26.6768C31.7338 26.2648 32.1949 25.7842 32.6218 25.3208C32.8438 25.0805 33.0657 24.8573 33.3048 24.6342C34.2782 23.7073 35.2344 23.0036 36.1564 22.5572C36.2419 22.7118 36.2589 22.9177 36.2248 23.0723C36.1394 23.57 35.7978 24.0505 35.5247 24.2394C35.1661 24.4626 35.0636 24.926 35.2856 25.2692C35.4222 25.4924 35.6783 25.6297 35.9174 25.6297C36.0541 25.6297 36.1906 25.5954 36.3102 25.5096C36.9932 25.0805 37.5397 24.2051 37.6933 23.3125C37.7787 22.832 37.7104 22.3685 37.5397 21.9737C38.2739 21.7163 38.9228 21.5617 39.5034 21.5103L39.7595 21.4931C40.4938 21.4244 41.4159 21.3385 42.1331 20.7893C42.6282 20.4117 42.9698 19.7766 43.1064 19.0043C43.3625 17.4937 42.6795 16.3609 42.099 15.3482C41.894 14.9877 41.672 14.6101 41.5013 14.2325C41.5013 14.2153 41.3305 13.8205 41.2963 13.7176C40.3401 11.6406 38.8545 9.49503 34.7733 9.92419L33.9708 9.9413L34.0903 10.7308C34.5855 13.8892 36.6005 15.7772 39.6059 15.9145C39.7083 15.9145 39.7937 15.9145 39.879 15.9145C40.0328 15.9145 40.3401 15.9145 40.6474 15.8116C40.6987 15.8974 40.7329 15.9661 40.784 16.0519C41.3305 16.9959 41.7745 17.734 41.6207 18.6952C41.5524 19.0729 41.4159 19.3819 41.2281 19.5363C40.8524 19.8281 40.2206 19.8796 39.6229 19.9311L39.3497 19.9482C38.3422 20.0512 37.2494 20.3603 35.9003 20.9266C35.4052 21.1498 34.8928 21.4244 34.3805 21.7677C34.3805 21.7677 34.3635 21.7677 34.3464 21.7849C33.0487 22.6088 32.1607 23.0894 30.9312 22.6774C30.7776 22.6259 30.5898 22.5401 30.4018 22.4371C30.197 22.3169 30.0092 22.1625 29.8384 21.9909C29.992 21.9222 30.1457 21.8192 30.3165 21.7163C32.468 20.2057 34.483 18.043 33.2024 13.5802L32.9804 12.8078L32.229 13.0824C31.6313 13.2884 31.102 13.563 30.6239 13.872C29.8554 12.8249 29.5993 11.4346 29.9409 10.1129C30.3165 8.65397 31.3582 7.55544 32.7243 7.17781C34.2269 6.7487 35.3369 6.78303 36.3614 7.29797C36.737 7.48678 37.1811 7.3323 37.3689 6.95468C37.5567 6.57705 37.403 6.13077 37.0273 5.94197C35.2514 5.0494 33.4926 5.3927 32.3144 5.71883C31.8534 5.85614 31.4265 6.04495 31.0166 6.28526C30.9995 6.2166 30.9995 6.14793 30.9824 6.07928C30.3336 2.69786 27.8917 0.723932 24.2716 0.655273H23.4861L23.5202 1.44484C23.7252 6.09644 26.3208 7.48678 28.8479 8.22485C28.9334 8.24201 29.0017 8.25918 29.07 8.27635C28.8309 8.72262 28.6259 9.18607 28.4894 9.70101C28.0283 11.4862 28.3869 13.3571 29.4286 14.7474C27.96 16.1377 27.2941 18.0773 27.6014 20.343C27.7039 21.1326 27.9259 22.0252 28.4211 22.6602C28.7455 23.0723 29.1724 23.4499 29.6506 23.7245C29.9237 23.8789 30.197 24.0162 30.4702 24.1021C30.8117 24.2223 31.1362 24.2737 31.4435 24.2909C31.0507 24.7029 30.6751 25.0976 30.2312 25.4238C29.3773 26.076 28.4894 26.4879 27.6356 26.694C26.8501 26.8656 26.0475 26.797 25.1938 26.7111C25.5181 26.4708 25.8767 26.1962 26.2183 25.87C26.833 25.3036 27.1233 24.5312 27.072 23.6386C27.0379 22.8663 26.6964 21.7849 25.2961 21.0468C24.3399 20.549 23.3324 20.446 22.3762 20.755C21.6077 20.9953 21.0443 21.476 20.6685 22.214L20.532 22.3685C20.2076 22.7118 19.8831 23.0723 19.7806 23.7416C19.7294 24.0162 19.7294 24.2737 19.7294 24.5483C19.7294 24.7372 19.7294 24.9432 19.6953 25.1319C19.644 25.4581 19.5415 26.0417 20.088 26.5395C20.2246 26.6596 20.3782 26.7454 20.4978 26.8141C19.422 26.9343 18.2609 26.797 17.0484 26.3849C16.7411 26.282 16.485 26.1619 16.28 26.0417C15.9727 25.8529 15.6824 25.6469 15.3921 25.441C14.9481 25.1148 14.5725 24.72 14.1797 24.3081C14.4871 24.2737 14.8116 24.2223 15.136 24.1193C15.3921 24.0334 15.6653 23.9132 15.9556 23.7416C16.4337 23.467 16.8606 23.0894 17.1851 22.6774C17.6803 22.0423 17.9023 21.1498 18.0047 20.3603C18.3121 18.0773 17.6461 16.1548 16.1776 14.7645C17.2192 13.3571 17.5778 11.4862 17.0997 9.71817C16.9631 9.20323 16.7753 8.72262 16.5191 8.29351C16.5875 8.27635 16.6728 8.25919 16.7411 8.24201C19.2684 7.48678 21.8639 6.09644 22.0688 1.44484L22.1201 0.655273L21.3346 0.672438C17.7145 0.723932 15.2725 2.69786 14.6236 6.07928C14.6066 6.14793 14.6066 6.2166 14.5896 6.28526C14.1968 6.04495 13.7699 5.85614 13.3088 5.71883C12.1306 5.3927 10.3718 5.0494 8.59587 5.94197C8.2202 6.13077 8.06652 6.57705 8.25436 6.95468C8.4422 7.3323 8.88616 7.46961 9.26184 7.29797C10.2864 6.78303 11.3963 6.7487 12.899 7.17781C14.248 7.55544 15.2897 8.65397 15.6653 10.1129C16.0069 11.4518 15.7507 12.8422 14.9822 13.872C14.5041 13.5802 13.9748 13.3055 13.3771 13.0824L12.6258 12.8249L12.4038 13.5974C11.1231 18.0602 13.138 20.2229 15.2897 21.7334C15.4605 21.8536 15.6141 21.9393 15.7678 22.008C15.597 22.1796 15.4092 22.3342 15.2042 22.4543C15.0164 22.5572 14.8286 22.6431 14.6749 22.6945C13.5308 23.0723 12.6771 22.6774 11.4988 21.9565C10.9012 21.5446 10.3035 21.2012 9.72288 20.9609C8.37389 20.3774 7.28103 20.0684 6.27354 19.9825L6.00033 19.9482C5.40267 19.8968 4.77086 19.8452 4.37811 19.5363C4.19028 19.399 4.05367 19.09 3.98536 18.7124C3.83168 17.7512 4.25858 16.9959 4.82208 16.0519C4.87332 15.9832 4.90747 15.8974 4.95869 15.8116C5.26606 15.9318 5.57343 15.9318 5.72711 15.9318C5.81249 15.9318 5.91495 15.9318 6.00033 15.9318C9.0057 15.7944 11.0207 13.9063 11.5159 10.7481L11.6354 9.95851L10.867 9.87265C6.78582 9.4607 5.28314 11.5891 4.34396 13.666C4.22443 13.9235 4.13905 14.1982 4.01952 14.4556C3.86583 14.7474 3.71215 15.022 3.54139 15.3139C2.94373 16.3266 2.27776 17.4765 2.53391 18.9699C2.65344 19.7423 2.99496 20.3774 3.49016 20.7379ZM39.6742 14.4212C37.642 14.3183 36.2931 13.2541 35.7467 11.3316C38.0861 11.3316 39.0765 12.4645 39.9132 14.3011C39.9473 14.3526 39.9473 14.3869 39.9645 14.4212C39.8961 14.4212 39.7937 14.4212 39.6742 14.4212ZM29.2748 6.80019C26.9697 6.11361 25.4499 5.08373 25.0913 2.23441C27.5331 2.52622 29.0529 3.93371 29.531 6.37108C29.5823 6.61138 29.5993 6.76587 29.5993 6.86885C29.5139 6.86885 29.4115 6.83452 29.2748 6.80019ZM29.4627 20.4976C29.3432 20.5833 29.2578 20.6349 29.1895 20.6692C29.1553 20.5662 29.1212 20.4117 29.087 20.1714C28.7626 17.7169 29.7529 15.8802 31.9729 14.8161C32.5363 17.6483 31.4265 19.1072 29.4627 20.4976ZM16.0922 6.37108C16.5533 3.93371 18.0901 2.50904 20.532 2.23441C20.1734 5.08373 18.6536 6.13077 16.3484 6.80019C16.1947 6.83452 16.1093 6.86885 16.0239 6.86885C16.041 6.76587 16.0581 6.61138 16.0922 6.37108ZM13.6504 14.8161C15.8702 15.8802 16.8606 17.6997 16.5362 20.1714C16.502 20.4117 16.4679 20.5662 16.4337 20.6692C16.3655 20.6349 16.28 20.5833 16.1605 20.4976C14.1968 19.1072 13.0698 17.6483 13.6504 14.8161ZM5.69296 14.3011C6.52968 12.4645 7.52009 11.3316 9.85951 11.3316C9.29599 13.2712 7.96407 14.3355 5.93202 14.4212C5.82957 14.4212 5.72711 14.4212 5.64173 14.4212C5.65881 14.3869 5.67588 14.3526 5.69296 14.3011Z" fill="#0E0E0E"/>
<path d="M41.2453 30.5903C40.6988 30.556 40.1524 30.5045 39.7425 30.3843C41.86 29.5089 43.9603 28.0499 43.7384 24.0163L43.6871 23.2267L42.9017 23.3126C40.1695 23.6386 38.3424 25.1492 37.7276 27.5007C37.4373 28.6164 37.1811 30.0067 37.9496 30.9851C38.6838 31.912 39.9303 31.9978 41.1428 32.1008C42.8162 32.2209 43.6188 32.3926 43.8407 33.3366C44.097 34.521 44.2165 36.0143 44.097 37.5076C43.5676 36.4091 42.5772 35.3793 40.7672 34.5896L40.0328 34.2636L39.7425 34.9844C38.6497 37.9711 39.4694 40.6144 42.0307 42.2279C42.1844 42.3309 42.3381 42.3996 42.4747 42.4682C42.1503 42.8974 41.7917 43.2578 41.3648 43.5667C40.4427 44.2018 39.6572 44.6138 38.9741 44.8197C38.035 45.0943 37.1811 45.2489 36.464 45.266C35.0808 45.266 33.8001 45.0086 32.7414 44.5108L32.5023 44.4078C31.6486 44.013 30.8801 43.6183 30.9143 43.069C30.9484 42.4682 31.8876 42.1593 32.7756 41.919C34.0904 41.5585 38.0691 40.4428 38.1886 36.1345C38.2399 34.109 37.3519 31.8948 35.2516 31.2941C34.7393 31.1396 34.1246 31.2083 33.6293 31.397C31.4778 32.2209 29.2921 33.6112 29.4286 37.6965L29.4628 38.486L30.2483 38.4173C33.3903 38.1256 35.3882 36.2546 35.7468 33.2852C36.4298 33.9546 36.7372 35.0531 36.703 36.1002C36.6347 38.3487 35.354 39.6532 32.3828 40.4771C31.4607 40.7346 29.5311 41.2666 29.4286 42.9831C29.3262 44.6138 30.9314 45.3519 31.8876 45.781L31.9389 45.7981C30.9655 46.2616 30.2825 47.2571 30.2825 48.4071C30.2825 49.9863 31.5631 51.2908 33.1512 51.2908C34.7393 51.2908 36.02 50.0034 36.02 48.4071C36.02 47.772 35.8151 47.2057 35.4735 46.725C35.8151 46.7594 36.1566 46.7765 36.5152 46.7765C37.369 46.7594 38.3594 46.5877 39.4352 46.2787C39.8108 46.1757 40.2036 46.0041 40.6134 45.7981C40.1695 48.4587 39.2303 50.4497 37.4714 52.5781C35.9005 54.4834 34.1417 55.7879 32.1609 56.5088C31.3241 56.8178 30.5386 57.1096 29.6848 57.2984C28.9677 57.4701 28.2163 57.6417 27.5161 57.5215C27.1063 57.4529 26.6794 57.2984 26.2355 57.1267C25.9793 57.0409 25.7402 56.938 25.4841 56.8521C25.2793 56.7834 25.0913 56.6461 25.006 56.4745C24.9377 56.3544 24.9377 56.2342 24.9718 56.1141C24.989 56.0625 25.006 56.0111 25.0401 55.9596C25.0913 55.8223 25.1597 55.6506 25.2109 55.4446C25.2621 55.1528 25.228 54.4834 25.228 54.226C25.1597 53.093 25.006 52.1834 24.8523 51.3766C24.6987 50.5527 24.5791 49.849 24.562 49.0594C24.562 48.4758 24.4596 48.0639 24.3571 47.6519C24.3059 47.4287 24.2546 47.2057 24.2034 46.931C24.1693 46.7422 24.1522 46.5533 24.1351 46.3646C24.1181 46.1414 24.0839 45.9183 24.0498 45.7124C23.9302 44.9914 23.6399 41.3353 23.6229 40.9234C23.6229 40.8547 23.6057 40.8033 23.5716 40.7346C23.5716 40.7174 23.5716 40.6831 23.5545 40.666C23.5204 40.5973 23.4862 40.5458 23.435 40.4771C23.4179 40.46 23.4179 40.4428 23.4009 40.4257C23.3496 40.3741 23.2984 40.3398 23.2471 40.3055C23.2301 40.2884 23.1959 40.2711 23.1789 40.254C23.1276 40.2368 23.0593 40.2197 23.0081 40.2025C22.974 40.2025 22.9398 40.1854 22.8545 40.1854C22.769 40.1854 22.6837 40.2197 22.5983 40.254C22.547 40.2711 22.5129 40.3055 22.4617 40.3398C22.4275 40.3741 22.3763 40.3913 22.3421 40.4257L22.3251 40.4428C22.2739 40.5114 22.2226 40.5801 22.1884 40.666C22.1884 40.6831 22.1884 40.6831 22.1884 40.7003C22.1714 40.7689 22.1373 40.8376 22.1373 40.9063C22.1201 41.3353 21.8298 44.9914 21.7103 45.6951C21.6762 45.9011 21.6591 46.1243 21.642 46.3303C21.625 46.5362 21.6079 46.725 21.5737 46.931C21.5395 47.2057 21.4712 47.4287 21.42 47.6519C21.3176 48.0639 21.2151 48.4758 21.2151 49.0594C21.1981 49.849 21.0786 50.5699 20.9248 51.3766C20.7712 52.1834 20.6175 53.093 20.5492 54.226C20.5321 54.5006 20.515 55.1528 20.5662 55.4446C20.6004 55.6506 20.6687 55.805 20.72 55.9423C20.737 55.9939 20.7712 56.0454 20.7883 56.1141C20.8223 56.2342 20.8223 56.3544 20.7541 56.4745C20.6687 56.6461 20.4809 56.7834 20.2759 56.8521C20.0198 56.938 19.7808 57.0237 19.5247 57.1096C19.0806 57.2812 18.6708 57.4358 18.2439 57.5044C17.5608 57.6245 16.8096 57.4529 16.0924 57.2812C15.2385 57.0753 14.453 56.8006 13.5309 56.4574C11.6526 55.7707 9.89382 54.449 8.3057 52.5438C6.4615 50.4326 5.5394 48.4415 5.09542 45.7981C5.48817 45.987 5.86385 46.1414 6.22244 46.2444C7.29822 46.5705 8.28863 46.7422 9.1595 46.7422C9.50103 46.7422 9.84253 46.725 10.1841 46.6906C9.84253 47.1713 9.63763 47.7377 9.63763 48.3728C9.63763 49.952 10.9183 51.2565 12.5064 51.2565C14.0774 51.2565 15.3752 49.9691 15.3752 48.3728C15.3752 47.2228 14.6921 46.2273 13.7188 45.7638L13.7701 45.7467C14.7263 45.3003 16.3314 44.5794 16.229 42.9488C16.1265 41.2323 14.1969 40.7003 13.2748 40.4428C10.3206 39.6189 9.02289 38.3143 8.95459 36.0658C8.90336 35.036 9.21073 33.9374 9.89382 33.268C10.2523 36.2375 12.2503 38.1084 15.3922 38.4002L16.1777 38.4689L16.2119 37.6793C16.3485 33.5941 14.1627 32.2038 12.0112 31.3799C11.4648 31.174 10.8842 31.1224 10.3378 31.2769C8.27155 31.8948 7.38361 34.109 7.4519 36.1173C7.57143 40.4257 11.5501 41.5414 12.865 41.9018C13.7529 42.1421 14.6921 42.451 14.7263 43.0518C14.7604 43.601 13.992 43.9959 13.1382 44.3907L12.8992 44.4937C11.8404 44.9914 10.5597 45.2489 9.17658 45.2489C8.45939 45.2317 7.60559 45.0772 6.64934 44.8026C5.9663 44.6138 5.1808 44.2018 4.2587 43.5667C3.8318 43.275 3.47321 42.8974 3.14876 42.4682C3.28537 42.3996 3.42198 42.3309 3.57566 42.2279C6.13706 40.6144 6.95671 37.9883 5.86385 34.9844L5.59062 34.2292L4.85636 34.5553C3.04631 35.3449 2.0559 36.3748 1.52654 37.4733C1.40701 35.9628 1.52654 34.4866 1.78269 33.3023C1.9876 32.3583 2.80724 32.2038 4.48068 32.0665C5.69308 31.9806 6.95671 31.8776 7.6739 30.9508C8.33986 30.0926 8.20325 28.9597 7.99833 27.9642C7.94711 27.6895 7.8788 27.4149 7.79343 27.1403C7.09331 24.9603 5.31741 23.5872 2.70479 23.2783L1.9193 23.1924L1.88514 23.9991C1.66315 28.0328 3.76349 29.4918 5.88091 30.3672C5.45401 30.4873 4.92466 30.5388 4.37823 30.5732C2.87555 30.6933 0.809356 30.8478 0.331229 32.9762C-0.385962 36.2203 -0.18105 42.3137 3.42198 44.7854C3.43906 44.8026 3.43906 44.8026 3.45613 44.8197C3.84888 48.3385 4.90758 50.8788 7.09331 53.5051C8.85213 55.6163 10.8159 57.0753 13.0357 57.8991C13.9066 58.2253 14.7433 58.517 15.6825 58.7402C16.2802 58.8775 16.9803 59.0321 17.6975 59.0321C17.9366 59.0321 18.1756 59.0148 18.4147 58.9805C18.9782 58.8947 19.4734 58.7059 19.9686 58.517C20.1906 58.4313 20.4125 58.3454 20.6345 58.2767C21.2322 58.088 21.7103 57.6761 21.9836 57.1439C22.2226 56.6633 22.2739 56.1312 22.1201 55.6163C22.086 55.5304 22.0518 55.4274 22.0177 55.3417C21.9836 55.2558 21.9494 55.1871 21.9494 55.1528C21.9323 55.0498 21.9323 54.6379 21.9665 54.2774C22.0348 53.2476 22.1714 52.4237 22.3251 51.6169C22.4787 50.7759 22.6154 49.9691 22.6324 49.0423C22.6324 48.6303 22.7178 48.3385 22.8032 47.9609C22.8032 47.9265 22.8203 47.875 22.8373 47.8407C22.8545 47.875 22.8545 47.9265 22.8715 47.9609C22.9568 48.3385 23.0252 48.6303 23.0423 49.0423C23.0593 49.952 23.1959 50.7587 23.3496 51.5997C23.4862 52.4065 23.6399 53.2303 23.7082 54.2603C23.7253 54.5863 23.7253 55.0327 23.7253 55.1357C23.7082 55.1871 23.6912 55.2558 23.657 55.3417C23.6229 55.4274 23.5887 55.5133 23.5545 55.6163C23.4009 56.1312 23.435 56.6633 23.6912 57.1439C23.9643 57.6761 24.4596 58.0708 25.0401 58.2596C25.2621 58.3283 25.4841 58.4141 25.7232 58.4999C26.2184 58.6888 26.7136 58.8775 27.2771 58.9634C27.5161 58.9977 27.7724 59.0148 28.0114 59.0148C28.7456 59.0148 29.4458 58.8604 30.0264 58.7231C30.9655 58.4999 31.8022 58.191 32.7585 57.8477C34.893 57.0581 36.8738 55.5991 38.6155 53.4879C40.8013 50.8617 41.877 48.3042 42.2528 44.7683C45.8557 42.2794 46.0607 36.2031 45.3435 32.959C44.8312 30.8478 42.765 30.6933 41.2453 30.5903ZM38.9912 29.0455C38.9912 28.9769 38.9912 28.8739 39.0083 28.7537C39.1961 26.7111 40.3061 25.4066 42.2528 24.926C42.1673 27.2604 41.0062 28.2216 39.1108 28.994C39.0766 29.0283 39.0253 29.0455 38.9912 29.0455ZM34.2441 33.0277C34.0221 35.0531 32.8781 36.3404 30.9143 36.7696C31.068 34.4352 32.2292 33.5083 34.1417 32.7874C34.1929 32.7703 34.227 32.753 34.2612 32.7359C34.2612 32.8217 34.2612 32.9076 34.2441 33.0277ZM33.1171 49.7631C32.3657 49.7631 31.751 49.1452 31.751 48.39C31.751 47.6347 32.3657 47.0168 33.1171 47.0168C33.8684 47.0168 34.4832 47.6347 34.4832 48.39C34.4832 49.1452 33.8684 49.7631 33.1171 49.7631ZM11.4648 32.7874C13.3773 33.5255 14.5384 34.4352 14.6921 36.7696C12.7284 36.3404 11.5843 35.0531 11.3623 33.0277C11.3453 32.9076 11.3453 32.8046 11.3453 32.7359C11.3794 32.753 11.4306 32.7703 11.4648 32.7874ZM12.4893 47.0168C13.2407 47.0168 13.8554 47.6347 13.8554 48.39C13.8554 49.1452 13.2407 49.7631 12.4893 49.7631C11.7379 49.7631 11.1232 49.1452 11.1232 48.39C11.1232 47.6347 11.7379 47.0168 12.4893 47.0168ZM3.37075 24.9432C5.31741 25.4238 6.42734 26.7283 6.61518 28.7709C6.63226 28.891 6.63226 28.994 6.63226 29.0626C6.59811 29.0455 6.54688 29.0283 6.51273 29.0112C4.60022 28.2216 3.45613 27.2776 3.37075 24.9432ZM2.53403 41.095C2.53403 41.0607 2.51695 41.0092 2.51695 40.9577C2.3462 38.9151 2.67063 37.4562 4.70268 36.3061C5.16373 38.2629 4.51484 39.8592 2.79016 40.9406C2.68771 41.0264 2.60233 41.0607 2.53403 41.095ZM43.0895 40.9749C43.0895 41.0264 43.0723 41.0779 43.0723 41.1122C43.004 41.0779 42.9187 41.0263 42.8162 40.9577C41.0916 39.8763 40.4427 38.28 40.9037 36.3233C42.9357 37.4562 43.2602 38.9151 43.0895 40.9749Z" fill="#0E0E0E"/>
<path d="M28.7114 31.4482L28.9505 31.3624C30.3507 30.8817 31.5632 29.9892 32.3145 29.3198C32.5194 29.1481 32.6901 28.9765 32.878 28.8221C33.5098 28.2384 33.9879 27.7921 34.7735 27.3974C35.1491 27.2086 35.3028 26.7623 35.1149 26.3847C34.9271 26.007 34.4832 25.8697 34.1074 26.0413C33.1341 26.522 32.5194 27.0884 31.8705 27.6892C31.6998 27.8437 31.529 27.9981 31.3412 28.1697C30.6752 28.7534 29.6506 29.5257 28.4723 29.9206L28.2504 29.9892C27.277 30.3154 26.2867 30.6415 25.6549 31.8087C25.0913 32.8557 25.006 34.2117 25.467 35.4304C25.6207 35.8595 25.7744 36.3057 25.8939 36.8035C26.4403 38.8461 26.5599 40.9574 26.3038 43.6351C26.2867 43.8925 26.2525 44.1671 26.2355 44.4762C26.1842 44.9911 26.133 45.5575 26.0817 46.0038C26.0305 46.4158 25.9452 46.9478 26.0817 47.4799C26.15 47.7202 26.2013 47.9262 26.2525 48.1321C26.355 48.4926 26.4403 48.7329 26.4574 49.1621C26.5086 49.883 26.5428 50.5867 26.5428 51.3419C26.5428 51.5651 26.5258 51.8225 26.4745 52.183L26.4062 53.7279C26.4062 54.1055 26.3891 54.5689 26.6282 55.0323C26.8672 55.4958 27.3625 55.8905 27.943 56.3026L28.1138 56.4227C28.2504 56.5257 28.4041 56.5772 28.5578 56.5772C28.7798 56.5772 29.0189 56.4742 29.1554 56.2682C29.3945 55.9421 29.3262 55.4615 29.0017 55.2212L28.8139 55.0839C28.5919 54.9122 28.0455 54.5345 27.9601 54.3458C27.8918 54.2256 27.8918 53.9853 27.9089 53.7622L27.9601 52.3376C28.0114 51.9771 28.0455 51.6509 28.0455 51.3419C28.0455 50.5695 28.0114 49.8143 27.9601 49.0591C27.9259 48.4755 27.8064 48.0978 27.6869 47.7031C27.6356 47.5315 27.5844 47.3598 27.5333 47.1366C27.4649 46.862 27.5161 46.5358 27.5503 46.2098C27.6186 45.7463 27.6698 45.1627 27.7039 44.6306C27.7211 44.3389 27.7552 44.0641 27.7723 43.8067C28.0625 40.9402 27.9259 38.6574 27.3112 36.4259C27.1747 35.8938 27.0039 35.3961 26.8331 34.9326C26.5428 34.1259 26.5769 33.2334 26.9355 32.5467C27.2942 31.946 27.7894 31.7572 28.7114 31.4482Z" fill="#0E0E0E"/>
<path d="M19.7294 36.8389C19.849 36.3926 20.0026 35.9293 20.1563 35.4658C20.6002 34.2643 20.5319 32.9082 19.9685 31.8441C19.3366 30.6769 18.3462 30.3507 17.3729 30.0246L17.1509 29.9559C15.9727 29.5612 14.9481 28.7888 14.2822 28.2052C14.0944 28.0336 13.9065 27.879 13.7358 27.7074C13.0869 27.1066 12.4721 26.5403 11.4988 26.0596C11.1232 25.8708 10.6791 26.0252 10.4913 26.4028C10.3035 26.7805 10.4571 27.2268 10.8328 27.4156C11.6183 27.8104 12.0964 28.2566 12.7283 28.8231C12.9161 28.9947 13.0869 29.1664 13.2917 29.338C14.0602 30.0075 15.2555 30.9 16.6557 31.3806L16.8948 31.4664C17.8168 31.7754 18.3121 31.9643 18.6537 32.5822C19.0122 33.2687 19.0634 34.1441 18.756 34.968C18.5853 35.4486 18.4146 35.9464 18.2779 36.4613C17.6803 38.6927 17.5437 40.9584 17.8168 43.8421L17.8852 44.6145C17.9364 45.181 17.9876 45.7645 18.0559 46.2451C18.1071 46.5884 18.1413 46.9146 18.0731 47.172C18.0218 47.3952 17.9706 47.5668 17.9193 47.7384C17.7998 48.1333 17.6803 48.5109 17.6462 49.0944C17.5949 49.8153 17.5607 50.5706 17.5607 51.3774C17.5607 51.6863 17.5949 52.0124 17.629 52.287L17.6973 53.7803C17.6973 54.0035 17.6973 54.2438 17.6462 54.3811C17.5437 54.57 16.9973 54.9647 16.7923 55.1192L16.6045 55.2565C16.2801 55.4968 16.1947 55.9774 16.4508 56.3036C16.6045 56.5096 16.8265 56.6125 17.0484 56.6125C17.2021 56.6125 17.3559 56.561 17.4925 56.458L17.6632 56.3379C18.2438 55.926 18.739 55.5312 18.9781 55.0677C19.2171 54.6043 19.2001 54.1065 19.2001 53.7289L19.1318 52.1326C19.0805 51.858 19.0634 51.6005 19.0634 51.3774C19.0634 50.605 19.0976 49.9012 19.1488 49.1974C19.1829 48.7684 19.2513 48.5109 19.3708 48.1676C19.422 47.9787 19.4904 47.7728 19.5416 47.5325C19.6782 47.0003 19.6099 46.4854 19.5416 46.0392C19.4732 45.5757 19.422 45.0093 19.3879 44.4772L19.3196 43.6877C19.0634 40.9757 19.1829 38.8643 19.7294 36.8389Z" fill="#0E0E0E"/>
<path d="M60.8299 25.5598L59.5849 25.3236V23.4987L59.3702 18.3672H59.4131L62.5257 26.9769H64.0928L67.2054 18.3242L67.2483 18.3457L67.0336 23.4987V25.3236L65.7886 25.5598V26.9769H70.6185V25.5598L69.3735 25.3236V16.9501L70.6185 16.7139V15.2969H66.3038L63.32 23.9066H63.2771L60.2933 15.2969H57.245H56V16.7139L57.245 16.9501V25.3236L56 25.5598V26.9769H60.8299V25.5598Z" fill="#0E0E0E"/>
<path d="M81.0078 23.7778H79.2261L79.1402 25.1734H75.3622V21.8454H79.312V20.0419H75.3622V17.1004H79.0973L79.2046 18.496H81.0078V15.2969H73.0224H71.7773V16.7139L73.0224 16.9501V25.3236L71.7773 25.5598V26.9769H81.0078V23.7778Z" fill="#0E0E0E"/>
<path d="M86.718 25.5597L86.2672 25.4739L88.0274 22.1889H89.4871V25.3236L88.2421 25.5597V26.9553H93.072V25.5597L91.827 25.3236V22.1889H93.2223L94.961 25.4739L94.4888 25.5597V26.9553H98.9537V25.5597L97.7516 25.388L95.0469 20.6429L96.5281 18.2168C96.7857 17.8303 97.0003 17.5727 97.1935 17.4438C97.3867 17.315 97.5799 17.2291 97.816 17.2291C97.9234 17.2291 98.0307 17.2291 98.1166 17.2506C98.2024 17.2721 98.3098 17.2935 98.4171 17.315L98.7391 15.5544C98.5459 15.4256 98.3098 15.3397 98.0736 15.2538C97.816 15.2324 97.5584 15.1894 97.2794 15.1894C96.6998 15.1894 96.2275 15.3183 95.8841 15.5759C95.5406 15.8336 95.1757 16.2844 94.8108 16.9285L93.0291 20.0847H91.827V16.9715L93.072 16.7353V15.2968H91.827H88.2421V16.7138L89.4871 16.95V20.0632H88.285L86.4819 16.9071C86.0955 16.263 85.7305 15.8121 85.3871 15.5544C85.0436 15.2968 84.5714 15.168 83.9918 15.168C83.7127 15.168 83.4551 15.2109 83.1975 15.2753C82.9614 15.3397 82.7467 15.4471 82.5535 15.5759L82.897 17.3365C83.0043 17.315 83.0902 17.2935 83.1975 17.2721C83.2834 17.2506 83.3907 17.2506 83.4981 17.2506C83.7127 17.2506 83.9274 17.315 84.1206 17.4653C84.3138 17.6156 84.5284 17.8733 84.786 18.2383L86.2672 20.6215L83.4981 25.388L82.3389 25.5597V26.9553H86.7395V25.5597H86.718Z" fill="#0E0E0E"/>
<path d="M102.324 29.8325V26.9554H109.472V29.8325H111.598L111.812 25.1734H110.438V16.9501L111.683 16.7139V15.2969H101.616V16.7139L102.754 16.9501L102.539 20.0848C102.496 21.5878 102.303 22.7042 102.002 23.4987C101.702 24.2716 101.337 24.8298 100.907 25.1948H100.006L100.178 29.8539H102.324V29.8325ZM104.449 23.0907C104.686 22.2748 104.814 21.2657 104.879 20.0848L105.072 17.1219H108.099V25.1948H103.548C103.913 24.6151 104.235 23.9066 104.449 23.0907Z" fill="#0E0E0E"/>
<path d="M118.016 26.526C118.467 26.1181 118.875 25.5169 119.218 24.7654L122.546 16.8642L123.683 16.7139V15.2969H119.433V16.7139L120.141 16.8427L118.531 21.094H118.488L118.295 20.4713L116.599 16.7998L117.179 16.6925V15.2969H112.886V16.7139L114.131 16.8857L117.48 23.7778L117.308 24.2072C117.158 24.5936 116.986 24.8728 116.771 25.066C116.556 25.2592 116.234 25.3451 115.827 25.3451C115.741 25.3451 115.633 25.3451 115.505 25.3451C115.354 25.3451 115.247 25.3236 115.204 25.3236L115.226 27.1057C115.311 27.1057 115.44 27.1272 115.612 27.1272C115.784 27.1272 115.934 27.1272 116.063 27.1272C116.9 27.1272 117.544 26.9339 118.016 26.526Z" fill="#0E0E0E"/>
<path d="M129.221 25.5598L127.976 25.3236V22.1245H132.742V25.3236L131.475 25.5598V26.9769H136.305V25.5598L135.06 25.3236V16.9501L136.305 16.7139V15.2969H135.06H132.742H131.475V16.7139L132.742 16.9501V20.321H127.976V16.9501L129.221 16.7139V15.2969H124.392V16.7139L125.637 16.9501V25.3236L124.392 25.5598V26.9769H129.221V25.5598Z" fill="#0E0E0E"/>
<path d="M141.178 25.5598L140.363 25.4095L140.878 23.7992H144.656L145.171 25.4095L144.355 25.5598V26.9554H148.327V25.5598L147.489 25.431L143.969 15.2969H141.565L138.023 25.431L137.186 25.5598V26.9554H141.157V25.5598H141.178ZM142.745 17.9807H142.788L144.098 22.0816H141.414L142.745 17.9807Z" fill="#0E0E0E"/>
<path d="M153.972 25.5588L152.727 25.3226V22.7247H154.702C156.034 22.7247 157.085 22.3811 157.858 21.6941C158.631 21.0285 159.017 20.1268 159.017 19.0103C159.017 17.8938 158.631 16.9921 157.858 16.305C157.085 15.6179 156.034 15.2744 154.702 15.2744H150.388H149.143V16.6915L150.388 16.9276V25.3011L149.143 25.5373V26.9329H153.972V25.5588ZM152.727 17.0994H154.702C155.346 17.0994 155.84 17.2926 156.184 17.6576C156.527 18.0226 156.678 18.495 156.678 19.0532C156.678 19.6115 156.506 20.0623 156.184 20.4059C155.84 20.7494 155.346 20.9426 154.702 20.9426H152.727V17.0994Z" fill="#0E0E0E"/>
<path d="M165.048 27.1266C166.637 27.1266 167.903 26.5683 168.891 25.4519C169.878 24.3354 170.351 22.9183 170.351 21.2222V21.0504C170.351 19.3542 169.857 17.9372 168.891 16.8207C167.903 15.7042 166.637 15.146 165.048 15.146C163.481 15.146 162.193 15.7042 161.227 16.8207C160.261 17.9372 159.768 19.3542 159.768 21.0504V21.2222C159.768 22.9398 160.261 24.3354 161.227 25.4519C162.215 26.5683 163.481 27.1266 165.048 27.1266ZM162.129 21.0289C162.129 19.8051 162.365 18.8174 162.859 18.0875C163.353 17.336 164.082 16.971 165.048 16.971C166.036 16.971 166.766 17.3575 167.281 18.1089C167.775 18.8604 168.032 19.848 168.032 21.0504V21.2436C168.032 22.4675 167.775 23.4551 167.281 24.2066C166.787 24.958 166.036 25.323 165.048 25.323C164.061 25.323 163.331 24.958 162.859 24.2066C162.365 23.4551 162.129 22.4675 162.129 21.2436V21.0289Z" fill="#0E0E0E"/>
<path d="M172.883 29.8325V26.9554H180.031V29.8325H182.156L182.371 25.1734H180.997V16.9501L182.242 16.7139V15.2969H172.174V16.7139L173.312 16.9501L173.097 20.0848C173.033 21.5878 172.861 22.7042 172.561 23.4987C172.26 24.2716 171.895 24.8298 171.466 25.1948H170.564L170.736 29.8539H172.883V29.8325ZM175.008 23.0907C175.244 22.2748 175.373 21.2657 175.437 20.0848L175.63 17.1219H178.657V25.1948H174.106C174.471 24.6151 174.793 23.9066 175.008 23.0907Z" fill="#0E0E0E"/>
<path d="M187.33 22.1245H192.074V25.3236L190.829 25.5598V26.9769H195.659V25.5598L194.414 25.3236V16.9501L195.659 16.7139V15.2969H194.414H192.074H190.829V16.7139L192.074 16.9501V20.321H187.33V16.9501L188.575 16.7139V15.2969H183.745V16.7139L184.991 16.9501V25.3236L183.745 25.5598V26.9769H188.575V25.5598L187.33 25.3236V22.1245Z" fill="#0E0E0E"/>
<path d="M207.122 16.7139L208.367 16.9501V25.3236L207.122 25.5598V26.9769H211.952V25.5598L210.707 25.3236V16.9501L211.952 16.7139V15.2969H207.122V16.7139Z" fill="#0E0E0E"/>
<path d="M205.942 25.9463C206.736 25.2592 207.122 24.3575 207.122 23.241C207.122 22.146 206.736 21.2657 205.942 20.6001C205.147 19.9345 204.095 19.6124 202.743 19.6124H200.747V16.9501L201.992 16.7139V15.2969H200.747H198.407H197.162V16.7139L198.407 16.9501V25.3236L197.162 25.5598V26.9554H202.743C204.074 26.9769 205.147 26.6334 205.942 25.9463ZM200.747 21.416H202.743C203.409 21.416 203.902 21.5878 204.267 21.9313C204.611 22.2748 204.804 22.7042 204.804 23.241C204.804 23.7992 204.632 24.2716 204.267 24.6366C203.902 25.0016 203.409 25.1948 202.743 25.1948H200.747V21.416Z" fill="#0E0E0E"/>
<path d="M219.251 14.2446C220.088 14.2446 220.775 14.0299 221.268 13.6005C221.762 13.1711 221.998 12.6128 221.977 11.9472L221.955 11.9043H220.367C220.367 12.2264 220.281 12.484 220.088 12.6772C219.916 12.8705 219.637 12.9778 219.251 12.9778C218.864 12.9778 218.585 12.8705 218.392 12.6772C218.22 12.484 218.113 12.2264 218.113 11.9043H216.524L216.503 11.9472C216.481 12.6343 216.696 13.1711 217.211 13.6005C217.727 14.0299 218.392 14.2446 219.251 14.2446Z" fill="#0E0E0E"/>
<path d="M218.156 25.5598L216.911 25.3236V24.8084L221.612 20.0419L221.655 20.0633V25.3236L220.41 25.5598V26.9769H225.24V25.5598L223.995 25.3236V16.9501L225.24 16.7139V15.2969H223.995H221.655H220.41V16.7139L221.655 16.9501V17.5942L216.954 22.3607H216.911V16.9501L218.156 16.7139V15.2969H216.911H214.571H213.326V16.7139L214.571 16.9501V25.3236L213.326 25.5598V26.9769H218.156V25.5598Z" fill="#0E0E0E"/>
<path d="M236.81 25.5598L235.544 25.3236V24.8084L240.245 20.0419L240.309 20.0633V25.3236L239.064 25.5598V26.9769H243.894V25.5598L242.649 25.3236V16.9501L243.894 16.7139V15.2969H242.649H240.309H239.064V16.7139L240.309 16.9501V17.5942L235.608 22.3607H235.544V16.9501L236.81 16.7139V15.2969H235.544H233.225H231.98V16.7139L233.225 16.9501V25.3236L231.98 25.5598V26.9769H236.81V25.5598Z" fill="#0E0E0E"/>
<path d="M249.883 25.5598L248.638 25.3236V22.1245H253.403V25.3236L252.137 25.5598V26.9769H256.967V25.5598L255.722 25.3236V16.9501L256.967 16.7139V15.2969H255.722H253.403H252.137V16.7139L253.403 16.9501V20.321H248.638V16.9501L249.883 16.7139V15.2969H245.053V16.7139L246.298 16.9501V25.3236L245.053 25.5598V26.9769H249.883V25.5598Z" fill="#0E0E0E"/>
<path d="M263.063 15.125C261.496 15.125 260.208 15.6618 259.221 16.7568C258.233 17.8518 257.74 19.2473 257.74 20.922V21.3085C257.74 23.0046 258.233 24.4002 259.242 25.4952C260.23 26.5687 261.518 27.127 263.085 27.127C263.986 27.127 264.802 26.9552 265.532 26.6546C266.262 26.3326 266.863 25.9032 267.335 25.3449V23.0476H265.596L265.36 24.5935C265.145 24.8296 264.866 25.0014 264.48 25.1302C264.094 25.259 263.686 25.3235 263.213 25.3235C262.226 25.3235 261.453 24.9585 260.917 24.207C260.38 23.4555 260.101 22.5108 260.101 21.3085V20.9006C260.101 19.7197 260.38 18.7535 260.917 18.0235C261.475 17.2935 262.248 16.9285 263.256 16.9285C263.729 16.9285 264.137 16.9929 264.501 17.1217C264.866 17.2506 265.145 17.4438 265.382 17.6585L265.618 19.2044H267.356V16.8856C266.884 16.3488 266.283 15.9194 265.553 15.5759C264.781 15.2968 263.965 15.125 263.063 15.125Z" fill="#0E0E0E"/>
<path d="M271.285 25.5598V26.9769H276.136V25.5598L274.87 25.3236V17.1004H277.016L277.124 18.4101H278.927V15.2969H268.516V18.4101H270.297L270.405 17.1004H272.53V25.3236L271.285 25.5598Z" fill="#0E0E0E"/>
<path d="M284.937 25.5598L283.692 25.3236V24.8084L288.393 20.0419L288.436 20.0633V25.3236L287.191 25.5598V26.9769H292.021V25.5598L290.776 25.3236V16.9501L292.021 16.7139V15.2969H290.776H288.436H287.191V16.7139L288.436 16.9501V17.5942L283.735 22.3607H283.692V16.9501L284.937 16.7139V15.2969H283.692H281.352H280.107V16.7139L281.352 16.9501V25.3236L280.107 25.5598V26.9769H284.937V25.5598Z" fill="#0E0E0E"/>
<path d="M295.005 17.1004H297.152V25.3236L295.885 25.5598V26.9769H300.736V25.5598L299.491 25.3236V17.1004H301.638L301.724 18.4101H303.527V15.2969H293.116V18.4101H294.919L295.005 17.1004Z" fill="#0E0E0E"/>
<path d="M309.173 23.7778L309.001 24.2072C308.851 24.5936 308.679 24.8728 308.464 25.066C308.25 25.2592 307.928 25.3451 307.52 25.3451C307.455 25.3451 307.327 25.3451 307.198 25.3451C307.047 25.3451 306.94 25.3236 306.897 25.3236L306.919 27.1057C307.005 27.1057 307.133 27.1272 307.305 27.1272C307.477 27.1272 307.627 27.1272 307.756 27.1272C308.614 27.1272 309.258 26.9339 309.731 26.5045C310.182 26.0966 310.589 25.4954 310.933 24.7439L314.26 16.8427L315.398 16.6925V15.2969H311.148V16.7139L311.834 16.8427L310.224 21.094H310.182L309.988 20.4713L308.293 16.7998L308.872 16.6925V15.2969H304.579V16.7139L305.824 16.8857L309.173 23.7778Z" fill="#0E0E0E"/>
<path d="M318.231 17.1004H320.378V25.3236L319.133 25.5598V26.9769H323.963V25.5598L322.718 25.3236V17.1004H324.864L324.972 18.4101H326.754V15.2969H316.364V18.4101H318.146L318.231 17.1004Z" fill="#0E0E0E"/>
<path d="M56.0859 34.2979L57.3095 34.5341V42.9076L56.0859 43.1438V44.5608H60.9158V43.1438L59.6493 42.9076V34.6844H64.4148V42.9076L63.1698 43.1438V44.5608H67.9997V43.1438L66.7546 42.9076V34.5341L67.9997 34.2979V32.8809H56.0859V34.2979Z" fill="#0E0E0E"/>
<path d="M74.0531 32.709C72.4861 32.709 71.1981 33.2458 70.2107 34.3408C69.2232 35.4358 68.7295 36.8314 68.7295 38.5061V38.8925C68.7295 40.5887 69.2232 41.9843 70.2321 43.0793C71.2196 44.1528 72.5075 44.711 74.0746 44.711C74.9762 44.711 75.7919 44.5393 76.5217 44.2387C77.2516 43.9166 77.8526 43.4872 78.3249 42.929V40.6316H76.5861L76.35 42.1775C76.1353 42.4137 75.8563 42.5855 75.4699 42.7143C75.0835 42.8431 74.6756 42.9075 74.2034 42.9075C73.2159 42.9075 72.4432 42.5425 71.885 41.7911C71.3484 41.0396 71.0693 40.0734 71.0693 38.8925V38.4846C71.0693 37.3037 71.3484 36.3375 71.885 35.6075C72.4217 34.8775 73.2159 34.4911 74.2248 34.4911C74.6971 34.4911 75.105 34.5555 75.4699 34.6843C75.8133 34.8131 76.1139 35.0064 76.35 35.2211L76.5861 36.767H78.3249V34.5126C77.8526 33.9758 77.2516 33.5464 76.5217 33.2029C75.7704 32.8808 74.9547 32.709 74.0531 32.709Z" fill="#0E0E0E"/>
<path d="M87.9637 32.8809H86.7187V34.2979L87.9637 34.5341V35.1782L83.2626 39.9447H83.2197V34.5341L84.4647 34.2979V32.8809H83.2197H80.8798H79.6348V34.2979L80.8798 34.5341V42.9076L79.6348 43.1438V44.5608H84.4647V43.1438L83.2197 42.9076V42.3923L87.9208 37.6259H87.9637V42.9076L86.7187 43.1438V44.5608H91.5486V43.1438L90.3035 42.9076V34.5341L91.5486 34.2979V32.8809H90.3035H87.9637Z" fill="#0E0E0E"/>
<path d="M99.5763 38.6779L102.582 34.4912L103.569 34.2979V32.8809H99.0826V34.2979L100.006 34.4053L98.2025 37.2609L96.3993 34.4053L97.3438 34.2979V32.8809H92.8788V34.2979L93.8448 34.4912L96.8501 38.6779L93.7804 42.9505L92.793 43.1438V44.5608H97.2794V43.1438L96.3564 43.0579L98.2239 40.095L100.113 43.0579L99.1684 43.1438V44.5608H103.762V43.1438L102.732 42.9505L99.5763 38.6779Z" fill="#0E0E0E"/>
<path d="M109.515 32.709C107.948 32.709 106.66 33.2673 105.694 34.3837C104.728 35.5002 104.234 36.9172 104.234 38.6134V38.7852C104.234 40.5028 104.728 41.8984 105.694 43.0149C106.66 44.1313 107.927 44.6896 109.515 44.6896C111.104 44.6896 112.37 44.1313 113.358 43.0149C114.345 41.8984 114.817 40.4814 114.817 38.7852V38.6134C114.817 36.9172 114.323 35.5002 113.358 34.3837C112.37 33.2887 111.082 32.709 109.515 32.709ZM112.499 38.8067C112.499 40.0305 112.241 41.0181 111.748 41.7696C111.254 42.5211 110.503 42.8861 109.515 42.8861C108.528 42.8861 107.798 42.5211 107.326 41.7696C106.832 41.0181 106.596 40.0305 106.596 38.8067V38.6134C106.596 37.3896 106.832 36.4234 107.326 35.672C107.819 34.9205 108.549 34.5555 109.515 34.5555C110.503 34.5555 111.232 34.942 111.748 35.6934C112.241 36.4449 112.499 37.4325 112.499 38.6349V38.8067Z" fill="#0E0E0E"/>
<path d="M121.365 32.709C119.798 32.709 118.51 33.2458 117.522 34.3408C116.535 35.4358 116.041 36.8314 116.041 38.5061V38.8925C116.041 40.5887 116.535 41.9843 117.544 43.0793C118.553 44.1528 119.819 44.711 121.386 44.711C122.288 44.711 123.103 44.5393 123.833 44.2387C124.563 43.9166 125.164 43.4872 125.636 42.929V40.6316H123.898L123.662 42.1775C123.447 42.4137 123.168 42.5855 122.781 42.7143C122.395 42.8431 121.987 42.9075 121.515 42.9075C120.528 42.9075 119.755 42.5425 119.218 41.7911C118.681 41.0396 118.402 40.0734 118.402 38.8925V38.4846C118.402 37.3037 118.681 36.3375 119.218 35.6075C119.755 34.8775 120.549 34.4911 121.558 34.4911C122.03 34.4911 122.438 34.5555 122.803 34.6843C123.146 34.8131 123.447 35.0064 123.683 35.2211L123.919 36.767H125.658V34.5126C125.186 33.9758 124.585 33.5464 123.855 33.2029C123.125 32.8593 122.266 32.709 121.365 32.709Z" fill="#0E0E0E"/>
<path d="M132.119 32.709C130.552 32.709 129.264 33.2673 128.298 34.3837C127.332 35.5002 126.838 36.9172 126.838 38.6134V38.7852C126.838 40.5028 127.332 41.8984 128.298 43.0149C129.264 44.1313 130.53 44.6896 132.119 44.6896C133.707 44.6896 134.974 44.1313 135.961 43.0149C136.948 41.8984 137.421 40.4814 137.421 38.7852V38.6134C137.421 36.9172 136.927 35.5002 135.94 34.3837C134.974 33.2887 133.707 32.709 132.119 32.709ZM135.102 38.8067C135.102 40.0305 134.845 41.0181 134.351 41.7696C133.857 42.5211 133.106 42.8861 132.119 42.8861C131.131 42.8861 130.401 42.5211 129.929 41.7696C129.435 41.0181 129.199 40.0305 129.199 38.8067V38.6134C129.199 37.3896 129.435 36.4234 129.929 35.672C130.423 34.9205 131.153 34.5555 132.119 34.5555C133.106 34.5555 133.836 34.942 134.351 35.6934C134.845 36.4449 135.102 37.4325 135.102 38.6349V38.8067Z" fill="#0E0E0E"/>
<path d="M145.514 41.4906H145.471L142.488 32.8809H139.439H138.194V34.2979L139.439 34.5341V42.9076L138.194 43.1438V44.5608H143.024V43.1438L141.779 42.9076V41.0826L141.565 35.9512H141.607L144.72 44.5608H146.287L149.421 35.9082L149.464 35.9297L149.228 41.0826V42.9076L147.983 43.1438V44.5608H152.813V43.1438L151.568 42.9076V34.5341L152.813 34.2979V32.8809H148.52L145.514 41.4906Z" fill="#0E0E0E"/>
<path d="M160.692 32.8809H158.309L154.767 43.015L153.93 43.1438V44.5394H157.901V43.1438L157.085 42.9935L157.601 41.3832H161.379L161.894 42.9935L161.078 43.1438V44.5394H165.049V43.1438L164.212 43.015L160.692 32.8809ZM158.159 39.687L159.468 35.5862H159.511L160.821 39.687H158.159Z" fill="#0E0E0E"/>
<path d="M164.748 35.9941H166.53L166.615 34.6844H168.762V42.9076L167.517 43.1438V44.5608H172.347V43.1438L171.102 42.9076V34.6844H173.248L173.334 35.9941H175.137V32.8809H164.748V35.9941Z" fill="#0E0E0E"/>
<path d="M184.647 32.8809H183.402V34.2979L184.647 34.5341V35.1782L179.946 39.9447H179.903V34.5341L181.148 34.2979V32.8809H179.903H177.563H176.318V34.2979L177.563 34.5341V42.9076L176.318 43.1438V44.5608H181.148V43.1438L179.903 42.9076V42.3923L184.604 37.6259H184.647V42.9076L183.402 43.1438V44.5608H188.232V43.1438L186.987 42.9076V34.5341L188.232 34.2979V32.8809H186.987H184.647Z" fill="#0E0E0E"/>
<path d="M197.462 32.8809H196.217V34.2979L197.462 34.5341V38.2485C197.097 38.3344 196.711 38.3988 196.26 38.4417C195.809 38.4847 195.423 38.5062 195.101 38.5062C194.35 38.5062 193.792 38.3559 193.448 38.0767C193.105 37.7976 192.933 37.2609 192.933 36.5094V34.5341L194.178 34.2979V32.8809H192.933H189.348V34.2979L190.593 34.5341V36.5094C190.593 37.7976 190.98 38.7638 191.774 39.3864C192.547 40.0091 193.663 40.3097 195.101 40.3097C195.445 40.3097 195.831 40.2882 196.282 40.2453C196.711 40.2023 197.119 40.1379 197.484 40.052V42.9076L196.239 43.1438V44.5394H201.069V43.1438L199.824 42.9076V34.5341L201.069 34.2979V32.8809H199.824H197.462Z" fill="#0E0E0E"/>
<path d="M209.805 42.7573H206.049V39.4294H209.999V37.6259H206.049V34.6844H209.784L209.891 36.08H211.673V32.8809H203.709H202.464V34.2979L203.709 34.5341V42.9076L202.464 43.1438V44.5608H211.694V41.3617H209.913L209.805 42.7573Z" fill="#0E0E0E"/>
<path d="M218.219 32.709C216.652 32.709 215.364 33.2458 214.377 34.3408C213.389 35.4358 212.896 36.8314 212.896 38.5061V38.8925C212.896 40.5887 213.389 41.9843 214.398 43.0793C215.407 44.1528 216.674 44.711 218.241 44.711C219.142 44.711 219.958 44.5393 220.688 44.2387C221.418 43.9166 222.019 43.4872 222.491 42.929V40.6316H220.752L220.516 42.1775C220.302 42.4137 220.022 42.5855 219.636 42.7143C219.25 42.8431 218.842 42.9075 218.37 42.9075C217.382 42.9075 216.609 42.5425 216.073 41.7911C215.536 41.0396 215.257 40.0734 215.257 38.8925V38.4846C215.257 37.3037 215.536 36.3375 216.073 35.6075C216.609 34.8775 217.404 34.4911 218.413 34.4911C218.885 34.4911 219.293 34.5555 219.658 34.6843C220.001 34.8131 220.302 35.0064 220.538 35.2211L220.774 36.767H222.513V34.5126C222.04 33.9758 221.439 33.5464 220.709 33.2029C219.98 32.8593 219.121 32.709 218.219 32.709Z" fill="#0E0E0E"/>
<path d="M230.392 38.3352L232.216 35.8232C232.517 35.4367 232.753 35.1791 232.968 35.0502C233.182 34.9214 233.397 34.8355 233.654 34.8355C233.762 34.8355 233.848 34.8355 233.912 34.857C233.976 34.8785 234.084 34.8999 234.256 34.9429L234.642 33.1823C234.449 33.0535 234.234 32.9676 233.998 32.8817C233.762 32.7958 233.504 32.7744 233.247 32.7744C232.646 32.7744 232.173 32.9032 231.83 33.1608C231.465 33.4185 231.057 33.8694 230.585 34.5135L228.395 37.6696H227.343V34.5564L228.524 34.3202V32.9032H223.759V34.3202L225.004 34.5564V42.9299L223.759 43.1661V44.5617H228.524V43.1661L227.343 42.9299V39.7952H228.717L230.885 43.0802L230.22 43.1446V44.5402H234.835V43.1446L233.612 42.9514L230.392 38.3352Z" fill="#0E0E0E"/>
<path d="M240.308 32.709C238.741 32.709 237.453 33.2673 236.487 34.3837C235.521 35.5002 235.027 36.9172 235.027 38.6134V38.7852C235.027 40.5028 235.521 41.8984 236.487 43.0149C237.453 44.1313 238.72 44.6896 240.308 44.6896C241.897 44.6896 243.163 44.1313 244.15 43.0149C245.138 41.8984 245.61 40.4814 245.61 38.7852V38.6134C245.61 36.9172 245.116 35.5002 244.15 34.3837C243.163 33.2887 241.875 32.709 240.308 32.709ZM243.27 38.8067C243.27 40.0305 243.013 41.0181 242.519 41.7696C242.025 42.5211 241.274 42.8861 240.287 42.8861C239.299 42.8861 238.569 42.5211 238.097 41.7696C237.603 41.0181 237.367 40.0305 237.367 38.8067V38.6134C237.367 37.3896 237.603 36.4234 238.097 35.672C238.591 34.9205 239.321 34.5555 240.287 34.5555C241.274 34.5555 242.004 34.942 242.519 35.6934C243.013 36.4449 243.27 37.4325 243.27 38.6349V38.8067Z" fill="#0E0E0E"/>
<path d="M246.427 34.2979L247.65 34.5341V42.9076L246.427 43.1438V44.5608H251.257V43.1438L249.99 42.9076V34.6844H253.382L253.468 35.8438H255.271V32.8809H246.427V34.2979Z" fill="#0E0E0E"/>
<path d="M261.11 32.709C259.543 32.709 258.255 33.2673 257.289 34.3837C256.323 35.5002 255.829 36.9172 255.829 38.6134V38.7852C255.829 40.5028 256.323 41.8984 257.289 43.0149C258.255 44.1313 259.521 44.6896 261.11 44.6896C262.698 44.6896 263.965 44.1313 264.952 43.0149C265.94 41.8984 266.412 40.4814 266.412 38.7852V38.6134C266.412 36.9172 265.918 35.5002 264.952 34.3837C263.965 33.2887 262.698 32.709 261.11 32.709ZM264.094 38.8067C264.094 40.0305 263.836 41.0181 263.342 41.7696C262.849 42.5211 262.097 42.8861 261.11 42.8861C260.144 42.8861 259.392 42.5211 258.92 41.7696C258.427 41.0181 258.19 40.0305 258.19 38.8067V38.6134C258.19 37.3896 258.427 36.4234 258.92 35.672C259.414 34.9205 260.144 34.5555 261.11 34.5555C262.097 34.5555 262.827 34.942 263.342 35.6934C263.836 36.4449 264.094 37.4325 264.094 38.6349V38.8067Z" fill="#0E0E0E"/>
<path d="M278.648 38.5495C279.206 38.2919 279.657 37.9484 279.979 37.519C280.301 37.0681 280.451 36.5957 280.451 36.059C280.451 34.9854 280.064 34.1696 279.292 33.5898C278.519 33.0101 277.467 32.731 276.158 32.731C275.277 32.731 274.462 32.9028 273.732 33.2248C273.002 33.5469 272.422 33.9978 271.95 34.5131V36.7245H273.689L273.925 35.286C274.14 35.0498 274.419 34.8781 274.762 34.7493C275.106 34.6204 275.514 34.556 275.986 34.556C276.694 34.556 277.231 34.7063 277.574 35.0069C277.918 35.3075 278.111 35.6725 278.111 36.1234C278.111 36.6387 277.961 37.0466 277.66 37.3257C277.36 37.6048 276.909 37.7551 276.265 37.7551H274.848V39.5157H276.265C276.93 39.5157 277.446 39.666 277.768 39.9451C278.111 40.2242 278.283 40.6751 278.283 41.2978C278.283 41.7916 278.09 42.1781 277.703 42.5001C277.317 42.8222 276.802 42.9725 276.136 42.9725C275.557 42.9725 275.084 42.8222 274.698 42.5001C274.333 42.1995 274.14 41.8131 274.14 41.3622H271.864L271.843 41.4051C271.821 42.5001 272.229 43.3375 273.088 43.8957C273.947 44.4754 274.955 44.7545 276.115 44.7545C277.446 44.7545 278.519 44.4539 279.356 43.8527C280.193 43.2516 280.601 42.3928 280.601 41.3192C280.601 40.6536 280.429 40.0954 280.086 39.6231C279.785 39.1292 279.292 38.7857 278.648 38.5495Z" fill="#0E0E0E"/>
<path d="M292.15 34.5341L293.395 34.2979V32.8809H283.327V34.2979L284.465 34.5126L284.25 37.6473C284.186 39.1503 284.014 40.2667 283.714 41.0397C283.413 41.8126 283.048 42.3708 282.619 42.7358H281.717L281.889 47.3949H284.036V44.5179H291.184V47.3949H293.309L293.524 42.7358H292.15V34.5341ZM289.81 42.7573H285.259C285.624 42.1991 285.946 41.4906 286.161 40.6747C286.397 39.8588 286.526 38.8497 286.59 37.6688L286.783 34.7059H289.81V42.7573Z" fill="#0E0E0E"/>
<path d="M299.599 32.709C298.032 32.709 296.744 33.2673 295.778 34.3837C294.812 35.5002 294.318 36.9172 294.318 38.6134V38.7852C294.318 40.5028 294.812 41.8984 295.778 43.0149C296.744 44.1313 298.01 44.6896 299.599 44.6896C301.187 44.6896 302.454 44.1313 303.441 43.0149C304.429 41.8984 304.901 40.4814 304.901 38.7852V38.6134C304.901 36.9172 304.407 35.5002 303.441 34.3837C302.454 33.2887 301.187 32.709 299.599 32.709ZM302.582 38.8067C302.582 40.0305 302.325 41.0181 301.831 41.7696C301.337 42.5211 300.586 42.8861 299.599 42.8861C298.633 42.8861 297.881 42.5211 297.409 41.7696C296.915 41.0181 296.679 40.0305 296.679 38.8067V38.6134C296.679 37.3896 296.915 36.4234 297.409 35.672C297.903 34.9205 298.633 34.5555 299.599 34.5555C300.586 34.5555 301.316 34.942 301.831 35.6934C302.325 36.4449 302.582 37.4325 302.582 38.6349V38.8067Z" fill="#0E0E0E"/>
<path d="M311.233 32.8809H306.919H305.674V34.2979L306.919 34.5341V42.9076L305.674 43.1438V44.5394H310.503V43.1438L309.258 42.9076V40.3097H311.233C312.564 40.3097 313.616 39.9661 314.389 39.3006C315.162 38.6135 315.548 37.7332 315.548 36.6167C315.548 35.5003 315.162 34.5985 314.389 33.9329C313.638 33.2244 312.564 32.8809 311.233 32.8809ZM312.714 37.9909C312.371 38.3559 311.899 38.5276 311.233 38.5276H309.258V34.7059H311.233C311.877 34.7059 312.371 34.8991 312.714 35.2641C313.058 35.6291 313.208 36.1015 313.208 36.6597C313.208 37.175 313.058 37.6259 312.714 37.9909Z" fill="#0E0E0E"/>
<path d="M321.687 32.709C320.12 32.709 318.832 33.2673 317.866 34.3837C316.9 35.5002 316.407 36.9172 316.407 38.6134V38.7852C316.407 40.5028 316.9 41.8984 317.866 43.0149C318.832 44.1313 320.099 44.6896 321.687 44.6896C323.276 44.6896 324.542 44.1313 325.53 43.0149C326.517 41.8984 326.99 40.4814 326.99 38.7852V38.6134C326.99 36.9172 326.496 35.5002 325.53 34.3837C324.542 33.2887 323.254 32.709 321.687 32.709ZM324.65 38.8067C324.65 40.0305 324.392 41.0181 323.898 41.7696C323.405 42.5211 322.653 42.8861 321.666 42.8861C320.679 42.8861 319.949 42.5211 319.476 41.7696C318.983 41.0181 318.747 40.0305 318.747 38.8067V38.6134C318.747 37.3896 318.983 36.4234 319.476 35.672C319.97 34.9205 320.7 34.5555 321.666 34.5555C322.653 34.5555 323.383 34.942 323.898 35.6934C324.392 36.4449 324.65 37.4325 324.65 38.6349V38.8067Z" fill="#0E0E0E"/>
<path d="M335.641 38.4847C336.177 38.27 336.607 37.9479 336.886 37.5185C337.165 37.0891 337.315 36.6167 337.315 36.08C337.315 35.0065 336.929 34.2121 336.156 33.6753C335.383 33.1385 334.31 32.8809 332.936 32.8809H328.986H327.741V34.2979L328.986 34.5341V42.9076L327.741 43.1438V44.5394H333.472C334.825 44.5394 335.877 44.2602 336.607 43.6805C337.336 43.1008 337.701 42.2635 337.701 41.147C337.701 40.5029 337.53 39.9232 337.186 39.4509C336.864 38.957 336.327 38.635 335.641 38.4847ZM331.347 34.6844H332.957C333.623 34.6844 334.138 34.8132 334.481 35.0709C334.825 35.3285 334.997 35.715 334.997 36.2732C334.997 36.767 334.825 37.132 334.481 37.3897C334.138 37.6473 333.666 37.7762 333.043 37.7762H331.369V34.6844H331.347ZM334.911 42.3494C334.589 42.6285 334.116 42.7573 333.494 42.7573H331.347V39.3864H333.687C334.288 39.3864 334.718 39.5367 334.997 39.8373C335.276 40.1379 335.404 40.5673 335.404 41.147C335.404 41.6838 335.233 42.0917 334.911 42.3494Z" fill="#0E0E0E"/>
<path d="M344.356 37.1964H342.36V34.5341L343.605 34.2979V32.8809H342.36H340.02H338.775V34.2979L340.02 34.5341V42.9076L338.775 43.1438V44.5394H344.377C345.708 44.5394 346.782 44.1958 347.576 43.5088C348.37 42.8217 348.756 41.92 348.756 40.8035C348.756 39.7085 348.37 38.8282 347.576 38.1626C346.76 37.54 345.687 37.1964 344.356 37.1964ZM345.859 42.1991C345.494 42.5641 345 42.7573 344.334 42.7573H342.338V39H344.334C345 39 345.494 39.1717 345.859 39.5153C346.223 39.8588 346.395 40.2882 346.395 40.825C346.395 41.3832 346.223 41.8341 345.859 42.1991Z" fill="#0E0E0E"/>
<path d="M359.49 34.2979V32.8809H358.245H354.209C352.856 32.8809 351.826 33.1815 351.053 33.8041C350.302 34.4268 349.916 35.307 349.916 36.445C349.916 37.2609 350.109 37.9264 350.517 38.4417C350.925 38.957 351.526 39.3864 352.32 39.687L351.418 41.6194C351.204 41.9844 351.01 42.2206 350.817 42.3494C350.624 42.4782 350.409 42.5426 350.195 42.5426C350.087 42.5426 350.001 42.5426 349.916 42.5211C349.83 42.4997 349.744 42.4782 349.637 42.4353L349.336 44.1958C349.529 44.3247 349.722 44.4105 349.959 44.475C350.195 44.5394 350.452 44.5823 350.71 44.5823C351.289 44.5823 351.783 44.4105 352.213 44.0885C352.642 43.745 352.985 43.2726 353.286 42.6714L354.381 40.1379H355.926V42.8861L354.681 43.1223V44.5179H355.926H359.511V43.1223L358.266 42.8861V34.5126L359.49 34.2979ZM355.905 38.4632H354.209C353.565 38.4632 353.071 38.2914 352.749 37.9694C352.427 37.6473 352.255 37.175 352.255 36.5738C352.255 35.9726 352.427 35.5003 352.749 35.1782C353.071 34.8562 353.565 34.6844 354.209 34.6844H355.905V38.4632Z" fill="#0E0E0E"/>
</svg>
